:SAMPLES-PER-SECOND 30
:FULLY-SPECIFIED
:DEGREES
642
root  -15.5867 25.6904 3.99219 -68.4081 -79.7951 91.3008
RightUpLeg  -77.5653 -20.5933 5.52922
RightLeg  102.46 1.08341 -6.07447
RightFoot  -23.6436 0.656104 3.51154
RightToes  -24.4095 -0.107379 -0.211296
Spine  22.0551 -0.219384 -4.53635
Spine1  33.6274 1.05256 -5.85637
HEad  11.2195 -11.9743 20.628
LeftShoulder1  0 -2.42657e-020 -4.95415e-022
LeftArm  -18.0384 -53.8483 -76.4297
LeftForeArm  -158.37 -22.4268 -3.74896
LeftHand  11.384 -26.632 -46.0535
RightShoulder  0 2.42657e-020 1.07489e-018
RightArm  -29.6354 58.0369 102.158
RightForeArm  74.238 8.95016 1.51254
RightHand  1.8292 17.9411 11.9236
LeftUpLeg  -71.5116 -8.42337 0.805074
LeftLeg  75.7224 -4.85712 -14.6603
LeftFoot  -15.4315 0.636063 4.69213
LeftToes  -40.3651 1.18758e-006 1.19596e-007
643
root  -17.3652 26.3356 3.08463 -73.9127 -81.0809 95.9056
RightUpLeg  -82.3843 -21.4702 5.42964
RightLeg  92.9644 0.0517286 -5.28727
RightFoot  -21.6225 0.453395 2.75156
RightToes  -22.9182 -0.0983169 -0.199861
Spine  21.1539 -0.581194 -4.85133
Spine1  32.7607 -1.54744 -5.85793
HEad  12.9933 -11.4281 22.4552
LeftShoulder1  0 -2.42657e-020 -4.95415e-022
LeftArm  -21.2383 -51.6715 -68.8737
LeftForeArm  -158.623 -25.5649 -4.40334
LeftHand  11.5796 -27.1225 -45.9804
RightShoulder  0 2.42657e-020 1.07489e-018
RightArm  -11.9916 48.3287 102.28
RightForeArm  58.4002 17.3013 3.10277
RightHand  2.16284 20.7727 12.1338
LeftUpLeg  -65.357 -8.13967 3.09299
LeftLeg  73.5336 -4.90849 -13.1456
LeftFoot  -18.4147 0.73809 4.55105
LeftToes  -41.401 1.18758e-006 1.19596e-007
644
root  -19.2289 27.1014 2.06108 -82.9132 -82.1456 103.551
RightUpLeg  -84.2062 -22.8202 6.84437
RightLeg  79.6919 -1.41596 -6.02335
RightFoot  -18.8775 0.364534 2.57015
RightToes  -22.1329 -0.0936653 -0.193746
Spine  19.9613 -1.17601 -5.44308
Spine1  31.7403 -4.45221 -6.05182
HEad  14.4466 -12.4397 24.3442
LeftShoulder1  0 -2.42657e-020 -4.95415e-022
LeftArm  -28.0661 -47.4813 -60.9009
LeftForeArm  -155.309 -28.0484 -4.94617
LeftHand  11.0938 -27.3462 -43.9029
RightShoulder  0 2.42657e-020 1.07489e-018
RightArm  -0.596341 38.5374 100.738
RightForeArm  48.5714 24.8981 4.6662
RightHand  1.13963 21.7309 6.30401
LeftUpLeg  -57.6451 -8.43199 5.37346
LeftLeg  69.528 -4.94504 -10.8958
LeftFoot  -20.6638 0.741709 4.06682
LeftToes  -42.069 1.18758e-006 1.19596e-007
645
root  -21.1988 27.9042 0.902212 -99.8424 -82.7931 118.888
RightUpLeg  -83.1163 -23.3617 9.72877
RightLeg  64.0917 -3.7953 -6.75793
RightFoot  -15.9081 0.295131 2.48968
RightToes  -20.5461 -0.084524 -0.181199
Spine  18.2235 -1.78665 -6.053
Spine1  30.0182 -7.07274 -6.0239
HEad  16.2818 -14.4262 25.5831
LeftShoulder1  0 -2.42657e-020 -4.95415e-022
LeftArm  -37.2173 -41.2693 -54.2301
LeftForeArm  -157.018 -28.7161 -5.09599
LeftHand  10.8504 -30.5997 -38.6672
RightShoulder  0 2.42657e-020 1.07489e-018
RightArm  4.84245 28.8105 99.1468
RightForeArm  43.5329 30.9376 6.04848
RightHand  -0.315733 23.6645 -1.13729
LeftUpLeg  -48.8375 -7.67661 7.31666
LeftLeg  64.5778 -5.34775 -9.51669
LeftFoot  -21.5357 0.714267 3.75446
LeftToes  -43.9409 1.18758e-006 1.19596e-007
646
root  -23.3806 28.6347 -0.402336 -120.577 -82.6205 137.047
RightUpLeg  -79.0252 -24.0915 13.6433
RightLeg  48.7922 -5.00961 -5.04981
RightFoot  -13.4766 0.178807 1.89094
RightToes  -27.1691 -0.124921 -0.231817
Spine  16.4163 -2.34787 -6.44036
Spine1  28.1691 -8.92891 -6.00007
HEad  18.4574 -16.8332 26.8106
LeftShoulder1  0 -2.42657e-020 -4.95415e-022
LeftArm  -47.3373 -33.0961 -49.013
LeftForeArm  -164.806 -28.9524 -5.15087
LeftHand  9.87281 -33.5848 -32.3189
RightShoulder  0 2.42657e-020 1.07489e-018
RightArm  6.23684 19.2811 97.647
RightForeArm  40.7304 36.2655 7.42287
RightHand  -0.474747 24.2374 -1.84117
LeftUpLeg  -38.9505 -7.07345 8.91797
LeftLeg  60.0323 -5.25014 -7.83762
LeftFoot  -20.5188 0.552267 3.05051
LeftToes  -46.397 1.18758e-006 1.19596e-007
647
root  -25.759 29.2234 -1.74599 -132.693 -81.8015 145.446
RightUpLeg  -74.5031 -28.3728 19.6228
RightLeg  38.1529 -3.98497 -2.74995
RightFoot  -13.3725 0.100857 1.23793
RightToes  -36.4004 -0.190385 -0.293899
Spine  15.006 -3.22473 -6.72335
Spine1  26.9273 -10.6336 -6.62667
HEad  21.0214 -19.9262 28.2436
LeftShoulder1  0 -2.42657e-020 -4.95415e-022
LeftArm  -51.5666 -24.6778 -43.7319
LeftForeArm  -163.744 -26.9589 -4.70576
LeftHand  7.69624 -36.0507 -23.7315
RightShoulder  0 2.42657e-020 1.07489e-018
RightArm  6.97756 10.7962 96.2171
RightForeArm  36.4746 40.5099 8.66568
RightHand  -0.130212 23.9849 -0.243041
LeftUpLeg  -28.8934 -8.1578 9.32111
LeftLeg  56.9331 -4.23245 -5.6541
LeftFoot  -16.7684 0.260166 1.76506
LeftToes  -51.2029 1.18758e-006 1.19596e-007
648
root  -28.0215 29.6463 -3.03291 -134.321 -80.3714 144.376
RightUpLeg  -69.7345 -31.4821 21.835
RightLeg  33.1775 -8.51583 -4.79738
RightFoot  -11.2579 0.160347 2.00445
RightToes  -28.3921 -0.133007 -0.240637
Spine  12.9372 -4.23293 -6.85345
Spine1  24.3531 -11.7872 -7.80784
HEad  24.0324 -24.092 28.9875
LeftShoulder1  0 -2.42657e-020 -4.95415e-022
LeftArm  -48.1253 -15.2062 -40.1128
LeftForeArm  -167.456 -25.6852 -4.43155
LeftHand  5.70948 -37.6358 -17.0226
RightShoulder  0 2.42657e-020 1.07489e-018
RightArm  7.65404 2.51322 94.226
RightForeArm  33.9795 43.8268 9.75399
RightHand  -0.0164839 24.5527 0.294331
LeftUpLeg  -22.7511 -9.75969 8.28622
LeftLeg  57.482 -3.21558 -4.39226
LeftFoot  -8.2721 0.028162 0.389434
LeftToes  -59.7096 1.18758e-006 1.19596e-007
649
root  -30.5467 29.908 -4.44381 -139.244 -79.9785 146.216
RightUpLeg  -61.8816 -34.2591 21.5231
RightLeg  31.1224 -10.0557 -5.18638
RightFoot  -13.594 0.290488 2.81453
RightToes  -19.802 -0.0803579 -0.175229
Spine  11.2408 -4.57429 -5.8842
Spine1  21.6556 -11.1108 -8.25255
HEad  25.9263 -28.3942 29.1996
LeftShoulder1  0 -2.42657e-020 -4.95415e-022
LeftArm  -39.8604 -5.53024 -38.5358
LeftForeArm  -174.085 -27.3604 -4.80108
LeftHand  4.34301 -39.371 -12.4717
RightShoulder  0 2.42657e-020 1.07489e-018
RightArm  6.63521 -5.74185 91.1145
RightForeArm  33.8493 50.2309 12.2599
RightHand  0.283594 25.9271 1.6023
LeftUpLeg  -18.9671 -11.368 8.52313
LeftLeg  62.0629 -3.41222 -5.53325
LeftFoot  4.31217 0.0384467 -1.02118
LeftToes  -65.944 1.18758e-006 1.19596e-007
650
root  -33.2534 30.1198 -6.31222 -164.276 -79.4519 167.557
RightUpLeg  -50.546 -35.595 23.0288
RightLeg  26.7127 -7.79221 -3.30217
RightFoot  -12.2777 0.158391 1.85022
RightToes  -1.97115 -0.00522484 -0.0185629
Spine  9.90867 -3.83375 -3.48178
Spine1  19.2047 -8.0919 -6.74259
HEad  28.2042 -32.3327 28.5135
LeftShoulder1  0 -2.42657e-020 -4.95415e-022
LeftArm  -32.6249 3.39186 -38.5427
LeftForeArm  -176.091 -29.3346 -5.2472
LeftHand  2.86007 -40.1316 -8.19058
RightShoulder  0 2.42657e-020 1.07489e-018
RightArm  3.46916 -10.8113 87.6461
RightForeArm  30.7094 53.6064 13.8841
RightHand  2.17965 25.4401 10.0069
LeftUpLeg  -15.3892 -11.9068 12.7068
LeftLeg  68.3486 -4.53088 -9.488
LeftFoot  17.9688 0.575671 -3.63988
LeftToes  -53.9535 1.18758e-006 1.19596e-007
651
root  -35.6702 30.467 -8.05774 167.086 -76.593 -168.429
RightUpLeg  -40.3508 -32.9816 21.4555
RightLeg  31.9667 -5.45571 -2.93824
RightFoot  -14.6803 0.155149 1.58201
RightToes  1.8917 0.004411 0.0179737
Spine  10.0464 -3.81847 -0.794385
Spine1  19.7052 -7.31132 -3.38331
HEad  29.4545 -34.5176 26.9746
LeftShoulder1  0 -2.42657e-020 -4.95415e-022
LeftArm  -29.6084 14.7098 -40.4612
LeftForeArm  -176.083 -39.2587 -7.79829
LeftHand  1.37161 -40.8133 -4.05628
RightShoulder  0 2.42657e-020 1.07489e-018
RightArm  2.56984 -9.22873 83.6046
RightForeArm  28.2297 52.205 13.1799
RightHand  2.64605 24.0401 12.7544
LeftUpLeg  -13.5688 -16.5308 16.4949
LeftLeg  76.7495 -6.46672 -20.3229
LeftFoot  30.5655 3.15225 -11.5005
LeftToes  -38.7487 1.18758e-006 1.19596e-007
